<svg width="22" height="19" viewBox="0 0 22 19" fill="none" xmlns="http://www.w3.org/2000/svg">
<path fill-rule="evenodd" clip-rule="evenodd" d="M10.0007 12V18C10.0007 18.5522 9.553 19 9.0007 19H4.00074C3.44845 19 3.00074 18.5522 3.00074 18V9H1.18557C0.71748 9 0.50603 8.4143 0.86615 8.1153L9.7231 0.760871C10.4638 0.145791 11.5377 0.145791 12.2784 0.760871L21.1353 8.1153C21.4954 8.4143 21.284 9 20.8159 9H19.0007V18C19.0007 18.5522 18.553 19 18.0007 19H13.0007C12.4485 19 12.0007 18.5522 12.0007 18V12H10.0007ZM4.50074 9L4.50073 8.9961V7.04698L10.6813 1.91489C10.8665 1.76112 11.135 1.76112 11.3202 1.91489L17.5007 7.04698V17.5H13.5007V12V11.9962V11.5C13.5007 10.9477 13.053 10.5 12.5007 10.5H9.5007C8.94845 10.5 8.50073 10.9477 8.50073 11.5L8.50074 17.5H4.50074V9Z" fill="white"/>
</svg>
