<svg width="39" height="32" viewBox="0 0 39 32" fill="none" xmlns="http://www.w3.org/2000/svg">
<g filter="url(#filter0_d_1026_381)">
<path d="M24.2185 5.5C24.2185 5.77613 24.4396 6 24.7125 6C24.9853 6 25.2065 5.77613 25.2065 5.5V4.83333H25.8652C26.1381 4.83333 26.3592 4.60948 26.3592 4.33333C26.3592 4.05719 26.1381 3.83333 25.8652 3.83333H25.2065V3.16667C25.2065 2.89053 24.9853 2.66667 24.7125 2.66667C24.4396 2.66667 24.2185 2.89053 24.2185 3.16667V3.83333H23.5597C23.2869 3.83333 23.0657 4.05719 23.0657 4.33333C23.0657 4.60948 23.2869 4.83333 23.5597 4.83333H24.2185V5.5Z" fill="white"/>
<path d="M28.3354 4.33333C28.3354 4.05719 28.5566 3.83333 28.8294 3.83333H31.1349C31.4077 3.83333 31.6289 4.05719 31.6289 4.33333C31.6289 4.60948 31.4077 4.83333 31.1349 4.83333H28.8294C28.5566 4.83333 28.3354 4.60948 28.3354 4.33333Z" fill="white"/>
<path fill-rule="evenodd" clip-rule="evenodd" d="M20.5069 3.68668C20.6685 1.60547 22.3843 0 24.447 0H30.2475C32.3103 0 34.0261 1.60547 34.1877 3.68668L34.2637 4.66667L34.6866 9.37413C34.8132 10.7842 33.7162 12 32.3172 12C31.4815 12 30.7071 11.5563 30.2771 10.831L28.9941 8.66667H25.7005L24.4174 10.831C23.9875 11.5563 23.2131 12 22.3774 12C20.9784 12 19.8814 10.7842 20.008 9.37413L20.4309 4.66667L20.5069 3.68668ZM21.4159 4.745C21.4156 4.74907 21.4152 4.75313 21.4149 4.7572L20.992 9.46467C20.918 10.2891 21.5594 11 22.3774 11C22.866 11 23.3188 10.7405 23.5702 10.3165L24.8533 8.1522C25.0318 7.851 25.3535 7.66667 25.7005 7.66667H28.9941C29.3412 7.66667 29.6627 7.851 29.8413 8.1522L31.1244 10.3165C31.3758 10.7405 31.8286 11 32.3172 11C33.1352 11 33.7766 10.2891 33.7026 9.46467L33.2797 4.7572C33.2794 4.75313 33.279 4.74907 33.2787 4.745L33.2026 3.76501C33.0814 2.2041 31.7946 1 30.2475 1H24.447C22.9 1 21.6131 2.2041 21.492 3.76501L21.4159 4.745Z" fill="white"/>
</g>
<rect x="11.1787" y="6" width="13.7186" height="10" rx="5" fill="#161A1D"/>
<g filter="url(#filter1_d_1026_381)">
<path d="M10.5976 14.25C10.5976 14.6642 10.9267 15 11.3326 15C11.7385 15 12.0675 14.6642 12.0675 14.25V13.25H13.0474C13.4533 13.25 13.7823 12.9142 13.7823 12.5C13.7823 12.0858 13.4533 11.75 13.0474 11.75H12.0675V10.75C12.0675 10.3358 11.7385 10 11.3326 10C10.9267 10 10.5976 10.3358 10.5976 10.75V11.75H9.61774C9.21186 11.75 8.88282 12.0858 8.88282 12.5C8.88282 12.9142 9.21186 13.25 9.61774 13.25H10.5976V14.25Z" fill="white"/>
<path d="M16.722 12.5C16.722 12.0858 17.0511 11.75 17.4569 11.75H20.8866C21.2924 11.75 21.6215 12.0858 21.6215 12.5C21.6215 12.9142 21.2924 13.25 20.8866 13.25H17.4569C17.0511 13.25 16.722 12.9142 16.722 12.5Z" fill="white"/>
<path fill-rule="evenodd" clip-rule="evenodd" d="M5.07636 11.53C5.31672 8.4082 7.8692 6 10.9377 6H19.5666C22.6351 6 25.1876 8.4082 25.4279 11.53L25.5411 13L26.1701 20.0612C26.3585 22.1763 24.7266 24 22.6454 24C21.4022 24 20.2502 23.3344 19.6106 22.2465L17.7019 19H12.8024L10.8937 22.2465C10.254 23.3344 9.10201 24 7.85882 24C5.77766 24 4.14574 22.1763 4.33416 20.0612L4.96318 13L5.07636 11.53ZM6.42851 13.1175C6.42804 13.1236 6.42754 13.1297 6.42699 13.1358L5.79797 20.197C5.68781 21.4337 6.64198 22.5 7.85882 22.5C8.58571 22.5 9.2593 22.1108 9.63327 21.4747L11.542 18.2283C11.8076 17.7765 12.2861 17.5 12.8024 17.5H17.7019C18.2182 17.5 18.6966 17.7765 18.9623 18.2283L20.871 21.4747C21.2449 22.1108 21.9185 22.5 22.6454 22.5C23.8622 22.5 24.8165 21.4337 24.7063 20.197L24.0772 13.1358C24.0767 13.1297 24.0762 13.1236 24.0758 13.1175L23.9626 11.6475C23.7823 9.30615 21.8679 7.5 19.5666 7.5H10.9377C8.63632 7.5 6.72196 9.30615 6.54169 11.6475L6.42851 13.1175Z" fill="white"/>
</g>
<defs>
<filter id="filter0_d_1026_381" x="15.998" y="0" width="22.6982" height="20" filterUnits="userSpaceOnUse" color-interpolation-filters="sRGB">
<feFlood flood-opacity="0" result="BackgroundImageFix"/>
<feColorMatrix in="SourceAlpha" type="matrix" values="0 0 0 0 0 0 0 0 0 0 0 0 0 0 0 0 0 0 127 0" result="hardAlpha"/>
<feOffset dy="4"/>
<feGaussianBlur stdDeviation="2"/>
<feComposite in2="hardAlpha" operator="out"/>
<feColorMatrix type="matrix" values="0 0 0 0 0 0 0 0 0 0 0 0 0 0 0 0 0 0 0.25 0"/>
<feBlend mode="normal" in2="BackgroundImageFix" result="effect1_dropShadow_1026_381"/>
<feBlend mode="normal" in="SourceGraphic" in2="effect1_dropShadow_1026_381" result="shape"/>
</filter>
<filter id="filter1_d_1026_381" x="0.319336" y="6" width="29.8652" height="26" filterUnits="userSpaceOnUse" color-interpolation-filters="sRGB">
<feFlood flood-opacity="0" result="BackgroundImageFix"/>
<feColorMatrix in="SourceAlpha" type="matrix" values="0 0 0 0 0 0 0 0 0 0 0 0 0 0 0 0 0 0 127 0" result="hardAlpha"/>
<feOffset dy="4"/>
<feGaussianBlur stdDeviation="2"/>
<feComposite in2="hardAlpha" operator="out"/>
<feColorMatrix type="matrix" values="0 0 0 0 0 0 0 0 0 0 0 0 0 0 0 0 0 0 0.25 0"/>
<feBlend mode="normal" in2="BackgroundImageFix" result="effect1_dropShadow_1026_381"/>
<feBlend mode="normal" in="SourceGraphic" in2="effect1_dropShadow_1026_381" result="shape"/>
</filter>
</defs>
</svg>
