<svg width="27" height="29" viewBox="0 0 27 29" fill="none" xmlns="http://www.w3.org/2000/svg">
<g filter="url(#filter0_d_1026_367)">
<path fill-rule="evenodd" clip-rule="evenodd" d="M9.95898 17H5.81863C5.09468 17 4.50781 16.4011 4.50781 15.6623V14.7893C4.50781 14.2839 4.70455 13.7992 5.05473 13.4419C5.95939 12.5187 6.46761 11.2665 6.46761 9.9609V7C6.46761 3.13401 9.53863 0 13.3269 0C17.1152 0 20.1862 3.13401 20.1862 7V9.9609C20.1862 11.2665 20.6945 12.5187 21.5991 13.4419C21.9492 13.7992 22.146 14.2839 22.146 14.7893V15.6623C22.146 16.4011 21.5591 17 20.8352 17H16.6948C16.6948 17.3565 16.6835 18.0363 16.3322 18.6873C15.7506 19.7646 14.6239 20.5 13.3269 20.5C12.0298 20.5 10.9032 19.7646 10.3217 18.6873C9.9703 18.0363 9.95898 17.3565 9.95898 17ZM20.5597 14.5025C20.6343 14.5786 20.6762 14.6818 20.6762 14.7893V15.5H5.97766V14.7893C5.97766 14.6818 6.01953 14.5786 6.09407 14.5025C7.27437 13.298 7.93746 11.6643 7.93746 9.9609V7C7.93746 3.96243 10.3504 1.5 13.3269 1.5C16.3035 1.5 18.7164 3.96243 18.7164 7V9.9609C18.7164 11.6643 19.3795 13.298 20.5597 14.5025ZM15.225 17H11.4288C11.4288 17.332 11.4522 17.6728 11.6091 17.9636C11.7186 18.1665 11.8617 18.3479 12.0306 18.5C12.376 18.8112 12.8299 19 13.3269 19C13.8239 19 14.2777 18.8112 14.6232 18.5C14.7922 18.3479 14.9351 18.1665 15.0447 17.9636C15.2017 17.6728 15.225 17.332 15.225 17Z" fill="white"/>
</g>
<defs>
<filter id="filter0_d_1026_367" x="0.507812" y="0" width="25.6387" height="28.5" filterUnits="userSpaceOnUse" color-interpolation-filters="sRGB">
<feFlood flood-opacity="0" result="BackgroundImageFix"/>
<feColorMatrix in="SourceAlpha" type="matrix" values="0 0 0 0 0 0 0 0 0 0 0 0 0 0 0 0 0 0 127 0" result="hardAlpha"/>
<feOffset dy="4"/>
<feGaussianBlur stdDeviation="2"/>
<feComposite in2="hardAlpha" operator="out"/>
<feColorMatrix type="matrix" values="0 0 0 0 0 0 0 0 0 0 0 0 0 0 0 0 0 0 0.25 0"/>
<feBlend mode="normal" in2="BackgroundImageFix" result="effect1_dropShadow_1026_367"/>
<feBlend mode="normal" in="SourceGraphic" in2="effect1_dropShadow_1026_367" result="shape"/>
</filter>
</defs>
</svg>
