<svg width="31" height="28" viewBox="0 0 31 28" fill="none" xmlns="http://www.w3.org/2000/svg">
<g filter="url(#filter0_d_1026_366)">
<path fill-rule="evenodd" clip-rule="evenodd" d="M22.5327 2H24.4925C25.5749 2 26.4523 2.89543 26.4523 4V7C26.4523 9.2091 24.6974 11 22.5327 11H21.8727C20.8716 13.1504 18.8279 14.6973 16.4083 14.9603V18.5H18.8581C19.264 18.5 19.593 18.8358 19.593 19.25C19.593 19.6642 19.264 20 18.8581 20H12.4888C12.0829 20 11.7538 19.6642 11.7538 19.25C11.7538 18.8358 12.0829 18.5 12.4888 18.5H14.9385V14.9603C12.5189 14.6973 10.4752 13.1504 9.47422 11H8.81413C6.64939 11 4.89453 9.2091 4.89453 7V4C4.89453 2.89543 5.77196 2 6.85433 2H8.81413V1.875C8.81413 0.83947 9.63673 0 10.6514 0H20.6954C21.7101 0 22.5327 0.83947 22.5327 1.875V2ZM10.284 1.875C10.284 1.66789 10.4485 1.5 10.6514 1.5H20.6954C20.8983 1.5 21.0629 1.66789 21.0629 1.875V8C21.0629 11.0376 18.65 13.5 15.6734 13.5C12.6969 13.5 10.284 11.0376 10.284 8V1.875ZM22.3749 9.5H22.5327C23.8857 9.5 24.9825 8.3807 24.9825 7V4C24.9825 3.72386 24.7631 3.5 24.4925 3.5H22.5327V8C22.5327 8.5149 22.4782 9.0168 22.3749 9.5ZM8.97198 9.5C8.8686 9.0168 8.81413 8.5149 8.81413 8V3.5H6.85433C6.58374 3.5 6.36438 3.72386 6.36438 4V7C6.36438 8.3807 7.46117 9.5 8.81413 9.5H8.97198Z" fill="white"/>
</g>
<defs>
<filter id="filter0_d_1026_366" x="0.894531" y="0" width="29.5576" height="28" filterUnits="userSpaceOnUse" color-interpolation-filters="sRGB">
<feFlood flood-opacity="0" result="BackgroundImageFix"/>
<feColorMatrix in="SourceAlpha" type="matrix" values="0 0 0 0 0 0 0 0 0 0 0 0 0 0 0 0 0 0 127 0" result="hardAlpha"/>
<feOffset dy="4"/>
<feGaussianBlur stdDeviation="2"/>
<feComposite in2="hardAlpha" operator="out"/>
<feColorMatrix type="matrix" values="0 0 0 0 0 0 0 0 0 0 0 0 0 0 0 0 0 0 0.25 0"/>
<feBlend mode="normal" in2="BackgroundImageFix" result="effect1_dropShadow_1026_366"/>
<feBlend mode="normal" in="SourceGraphic" in2="effect1_dropShadow_1026_366" result="shape"/>
</filter>
</defs>
</svg>
